<svg width="48" height="48" viewBox="0 0 48 48" fill="none" xmlns="http://www.w3.org/2000/svg">
<path d="M25.1213 28.6565L25.9728 27.805V27.805L25.1213 28.6565ZM25.1213 32.8991L25.9728 33.7506V33.7506L25.1213 32.8991ZM20.8787 32.8991L20.0272 33.7506V33.7506L20.8787 32.8991ZM20.8787 28.6565L20.0272 27.805H20.0272L20.8787 28.6565ZM29.5635 22.6779C30.1834 22.9189 30.8813 22.6118 31.1223 21.992C31.3633 21.3722 31.0563 20.6743 30.4365 20.4333L30 21.5556L29.5635 22.6779ZM26 20L26.4365 18.8777C26.066 18.7336 25.6482 18.7817 25.3201 19.0061C24.992 19.2306 24.7958 19.6025 24.7958 20H26ZM24.7958 30.8889C24.7958 31.5539 25.3349 32.0931 26 32.0931C26.6651 32.0931 27.2042 31.5539 27.2042 30.8889H26H24.7958ZM36.7958 13V14.2042H39.2042V13H38H36.7958ZM8.79582 13V14.2042H11.2042V13H10H8.79582ZM14 13V14.2042H34V13V11.7958H14V13ZM40 19H38.7958V35H40H41.2042V19H40ZM34 41V39.7958H14V41V42.2042H34V41ZM8 35H9.20418V19H8H6.79582V35H8ZM14 41V39.7958C11.3513 39.7958 9.20418 37.6487 9.20418 35H8H6.79582C6.79582 38.9788 10.0212 42.2042 14 42.2042V41ZM40 35H38.7958C38.7958 37.6487 36.6487 39.7958 34 39.7958V41V42.2042C37.9788 42.2042 41.2042 38.9788 41.2042 35H40ZM34 13V14.2042C36.6487 14.2042 38.7958 16.3513 38.7958 19H40H41.2042C41.2042 15.0212 37.9788 11.7958 34 11.7958V13ZM14 13V11.7958C10.0212 11.7958 6.79582 15.0212 6.79582 19H8H9.20418C9.20418 16.3513 11.3513 14.2042 14 14.2042V13ZM25.1213 28.6565L24.2698 29.508C24.9711 30.2093 24.9711 31.3463 24.2698 32.0476L25.1213 32.8991L25.9728 33.7506C27.6146 32.1088 27.6146 29.4468 25.9728 27.805L25.1213 28.6565ZM25.1213 32.8991L24.2698 32.0476C23.5685 32.7489 22.4315 32.7489 21.7302 32.0476L20.8787 32.8991L20.0272 33.7506C21.669 35.3924 24.331 35.3924 25.9728 33.7506L25.1213 32.8991ZM20.8787 32.8991L21.7302 32.0476C21.0289 31.3463 21.0289 30.2093 21.7302 29.508L20.8787 28.6565L20.0272 27.805C18.3854 29.4468 18.3854 32.1088 20.0272 33.7506L20.8787 32.8991ZM20.8787 28.6565L21.7302 29.508C22.4315 28.8067 23.5685 28.8067 24.2698 29.508L25.1213 28.6565L25.9728 27.805C24.331 26.1632 21.669 26.1632 20.0272 27.805L20.8787 28.6565ZM30 21.5556L30.4365 20.4333L26.4365 18.8777L26 20L25.5635 21.1223L29.5635 22.6779L30 21.5556ZM26 20H24.7958V30.8889H26H27.2042V20H26ZM14 8V9.20418H34V8V6.79582H14V8ZM38 12H36.7958V13H38H39.2042V12H38ZM10 13H11.2042V12H10H8.79582V13H10ZM34 8V9.20418C35.5441 9.20418 36.7958 10.4559 36.7958 12H38H39.2042C39.2042 9.12581 36.8742 6.79582 34 6.79582V8ZM14 8V6.79582C11.1258 6.79582 8.79582 9.12581 8.79582 12H10H11.2042C11.2042 10.4559 12.4559 9.20418 14 9.20418V8Z" fill="currentColor" stroke="none"/>
</svg>
